%TF.GenerationSoftware,KiCad,Pcbnew,9.0.0*%
%TF.CreationDate,2026-05-26T00:18:54+05:30*%
%TF.ProjectId,ESP32_IoT_4-layer_PCB,45535033-325f-4496-9f54-5f342d6c6179,rev?*%
%TF.SameCoordinates,Original*%
%TF.FileFunction,Copper,L4,Bot*%
%TF.FilePolarity,Positive*%
%FSLAX46Y46*%
G04 Gerber Fmt 4.6, Leading zero omitted, Abs format (unit mm)*
G04 Created by KiCad (PCBNEW 9.0.0) date 2026-05-26 00:18:54*
%MOMM*%
%LPD*%
G01*
G04 APERTURE LIST*
%TA.AperFunction,ComponentPad*%
%ADD10C,1.208000*%
%TD*%
%TA.AperFunction,ComponentPad*%
%ADD11C,0.400000*%
%TD*%
%TA.AperFunction,ComponentPad*%
%ADD12R,1.700000X1.700000*%
%TD*%
%TA.AperFunction,ComponentPad*%
%ADD13O,1.700000X1.700000*%
%TD*%
%TA.AperFunction,ComponentPad*%
%ADD14C,0.650000*%
%TD*%
%TA.AperFunction,ComponentPad*%
%ADD15O,1.050000X2.100000*%
%TD*%
%TA.AperFunction,ViaPad*%
%ADD16C,0.500000*%
%TD*%
%TA.AperFunction,ViaPad*%
%ADD17C,0.300000*%
%TD*%
%TA.AperFunction,ViaPad*%
%ADD18C,0.200000*%
%TD*%
%TA.AperFunction,Conductor*%
%ADD19C,0.200000*%
%TD*%
%TA.AperFunction,Conductor*%
%ADD20C,0.250000*%
%TD*%
%TA.AperFunction,Conductor*%
%ADD21C,0.254000*%
%TD*%
%TA.AperFunction,Conductor*%
%ADD22C,0.300000*%
%TD*%
%TA.AperFunction,Profile*%
%ADD23C,0.050000*%
%TD*%
G04 APERTURE END LIST*
D10*
%TO.P,MK1,GND*%
%TO.N,GND*%
X144712500Y-78950000D03*
%TO.P,MK1,OUT*%
%TO.N,Net-(C17-Pad1)*%
X144712500Y-80850000D03*
%TD*%
D11*
%TO.P,U3,28,GND*%
%TO.N,GND*%
X211950000Y-79850000D03*
%TO.P,U3,29,GND*%
X213050000Y-79850000D03*
%TO.P,U3,30,GND*%
X211400000Y-80400000D03*
%TO.P,U3,31,GND*%
X212500000Y-80400000D03*
%TO.P,U3,32,GND*%
X213600000Y-80400000D03*
%TO.P,U3,33,GND*%
X211950000Y-80950000D03*
%TO.P,U3,34,GND*%
X213050000Y-80950000D03*
%TO.P,U3,35,GND*%
X211400000Y-81500000D03*
%TO.P,U3,36,GND*%
X212500000Y-81500000D03*
%TO.P,U3,37,GND*%
X213600000Y-81500000D03*
%TO.P,U3,38,GND*%
X211950000Y-82050000D03*
%TO.P,U3,39,GND*%
X213050000Y-82050000D03*
%TD*%
D12*
%TO.P,J5,1,Pin_1*%
%TO.N,GND*%
X146340000Y-72100000D03*
D13*
%TO.P,J5,2,Pin_2*%
%TO.N,/ESP32-C3-02/GPIO19*%
X148880000Y-72100000D03*
%TO.P,J5,3,Pin_3*%
%TO.N,/ESP32-C3-02/GPIO18*%
X151420000Y-72100000D03*
%TO.P,J5,4,Pin_4*%
%TO.N,/ESP32-C3-02/GPIO8*%
X153960000Y-72100000D03*
%TO.P,J5,5,Pin_5*%
%TO.N,+3.3V*%
X156500000Y-72100000D03*
%TD*%
D14*
%TO.P,J1,B1,GNDB1*%
%TO.N,GND*%
X171553250Y-114320000D03*
%TO.P,J1,B2,SSTXP2*%
%TO.N,unconnected-(J1-SSTXP2-PadB2)*%
X171153250Y-115030000D03*
%TO.P,J1,B3,SSTXN2*%
%TO.N,unconnected-(J1-SSTXN2-PadB3)*%
X170353250Y-115030000D03*
%TO.P,J1,B4,VBUSB1*%
%TO.N,/VBUS*%
X169953250Y-114320000D03*
%TO.P,J1,B5,CC2*%
%TO.N,Net-(J1-CC2)*%
X169553250Y-115030000D03*
%TO.P,J1,B6,DP2*%
%TO.N,Net-(J1-CC1)*%
X169153250Y-114320000D03*
%TO.P,J1,B7,DN2*%
%TO.N,/USB_DN*%
X168353250Y-114320000D03*
%TO.P,J1,B8,SBU2*%
%TO.N,unconnected-(J1-SBU2-PadB8)*%
X167953250Y-115030000D03*
%TO.P,J1,B9,VBUSB2*%
%TO.N,/VBUS*%
X167553250Y-114320000D03*
%TO.P,J1,B10,SSRXN1*%
%TO.N,unconnected-(J1-SSRXN1-PadB10)*%
X167153250Y-115030000D03*
%TO.P,J1,B11,SSRXP1*%
%TO.N,unconnected-(J1-SSRXP1-PadB11)*%
X166353250Y-115030000D03*
%TO.P,J1,B12,GNDB2*%
%TO.N,GND*%
X165953250Y-114320000D03*
%TO.P,J1,G1,GND/SHIELD*%
X170753250Y-114320000D03*
%TO.P,J1,G2,GND/SHIELD*%
X166753250Y-114320000D03*
D15*
%TO.P,J1,S1,GND/SHIELD*%
X164483250Y-115470000D03*
%TO.P,J1,S2,GND/SHIELD*%
X173023250Y-115470000D03*
%TO.P,J1,S3,GND/SHIELD*%
X164483250Y-120200000D03*
%TO.P,J1,S4,GND/SHIELD*%
X173023250Y-120200000D03*
%TD*%
D12*
%TO.P,J4,1,Pin_1*%
%TO.N,+3.3V*%
X169100000Y-72000000D03*
D13*
%TO.P,J4,2,Pin_2*%
%TO.N,/ESP32-C3-02/SDA*%
X166560000Y-72000000D03*
%TO.P,J4,3,Pin_3*%
%TO.N,/ESP32-C3-02/SCL*%
X164020000Y-72000000D03*
%TO.P,J4,4,Pin_4*%
%TO.N,GND*%
X161480000Y-72000000D03*
%TD*%
D16*
%TO.N,GND*%
X194700000Y-78500000D03*
X148200000Y-102250000D03*
X204400000Y-88400000D03*
D17*
X183800000Y-122100000D03*
D16*
X165100000Y-112000000D03*
X144600000Y-69800000D03*
X153000000Y-116700000D03*
X202200000Y-94600000D03*
X161900000Y-82600000D03*
X151000000Y-113487500D03*
X145733333Y-100300000D03*
X148200000Y-104200000D03*
X142500000Y-123300000D03*
X175800000Y-108800000D03*
X174800000Y-70100000D03*
X152600000Y-79900000D03*
X172050000Y-99150000D03*
X156700000Y-74800000D03*
X198500000Y-100800000D03*
X195500000Y-103000000D03*
X158350000Y-123850000D03*
X175500000Y-105050000D03*
X149400000Y-103200000D03*
X148200000Y-103225000D03*
D17*
X177300000Y-122200000D03*
D16*
X158575000Y-118925000D03*
X181700000Y-96300000D03*
X148200000Y-101275000D03*
X146800000Y-77000000D03*
X142500000Y-124200000D03*
X149400000Y-104200000D03*
X177800000Y-76400000D03*
X190400000Y-121700000D03*
X144500000Y-100300000D03*
X148200000Y-100300000D03*
X142500000Y-122500000D03*
X155400000Y-113487500D03*
D17*
X177800000Y-122200000D03*
D16*
X169800000Y-82100000D03*
X150400000Y-75400000D03*
X153300000Y-113487500D03*
X209500000Y-94800000D03*
X216900000Y-103400000D03*
X167996750Y-104300000D03*
X149125000Y-90225000D03*
D17*
X183200000Y-122100000D03*
D16*
X146966667Y-100300000D03*
X159700000Y-69800000D03*
%TO.N,/VBUS*%
X164300000Y-110850000D03*
X171700000Y-111700000D03*
X164300000Y-109800000D03*
X168756976Y-111365205D03*
X166585391Y-112019998D03*
X171400000Y-107300000D03*
X164300000Y-111900000D03*
%TO.N,+3.3V*%
X175000000Y-76300000D03*
X174550000Y-104300000D03*
X196600000Y-75400000D03*
X151100000Y-91600000D03*
X205000000Y-94700000D03*
X160200000Y-83300000D03*
X215100000Y-93800000D03*
X141100000Y-94400000D03*
X164450000Y-94850000D03*
X141200000Y-95600000D03*
X160550000Y-94850000D03*
X153100000Y-91600000D03*
X175300000Y-113800000D03*
X175800000Y-81100000D03*
X189700000Y-89000000D03*
X167600000Y-74300000D03*
X180500000Y-73900000D03*
X152100000Y-91600000D03*
X169750000Y-94850000D03*
X156700000Y-84500000D03*
X181700000Y-91700000D03*
X154100000Y-91600000D03*
%TO.N,/+5V_USB*%
X158800000Y-109800000D03*
X158500000Y-118000000D03*
X146200000Y-108925000D03*
X155200000Y-121800000D03*
X158800000Y-110850000D03*
X152800000Y-124000000D03*
X158800000Y-111900000D03*
X158600000Y-119800000D03*
X154631000Y-121800000D03*
X156000000Y-121800000D03*
X142900000Y-108925000D03*
%TO.N,Net-(C16-Pad2)*%
X162100000Y-76500000D03*
X152800000Y-77300000D03*
%TO.N,/ESP32-C3-02/MIC_OUT*%
X167061091Y-79861091D03*
X168400000Y-79900000D03*
%TO.N,/ESP32-C3-02/BOOT*%
X194600000Y-111300000D03*
X205500000Y-85900000D03*
X207500000Y-89200000D03*
X207300000Y-85900000D03*
%TO.N,/ESP32-C3-02/EN*%
X194700000Y-108900000D03*
X206500000Y-83173000D03*
X206400000Y-74900000D03*
X206500000Y-89100000D03*
%TO.N,/USB_DN*%
X170700000Y-110600000D03*
%TO.N,Net-(J1-CC2)*%
X163300000Y-122600000D03*
X167000000Y-116500000D03*
D18*
%TO.N,Net-(J1-CC1)*%
X168000000Y-112000000D03*
D16*
X163200000Y-118700000D03*
X166800000Y-110600000D03*
%TO.N,/ESP32-C3-02/CS_SD*%
X220700000Y-93200000D03*
X222400000Y-77800000D03*
%TO.N,/ESP32-C3-02/SCL*%
X196800000Y-76500000D03*
X206000000Y-76500000D03*
%TO.N,/ESP32-C3-02/SDA*%
X196900000Y-79200000D03*
X206000000Y-79200000D03*
%TO.N,/ESP32-C3-02/GPIO19*%
X207000000Y-80400000D03*
X148900000Y-69900000D03*
%TO.N,/ESP32-C3-02/GPIO18*%
X206928768Y-82128768D03*
X143900000Y-74500000D03*
%TO.N,/ESP32-C3-02/GPIO8*%
X194800000Y-81400000D03*
X154200000Y-74400000D03*
%TO.N,/ESP32-C3-02/PHOTO_C*%
X218200000Y-76100000D03*
X178100000Y-78375000D03*
%TO.N,/ESP32-C3-02/RTS*%
X179600000Y-112700000D03*
X181900000Y-117200000D03*
X180650000Y-116500000D03*
X165700000Y-99300000D03*
%TO.N,/ESP32-C3-02/DTR*%
X166500000Y-98900000D03*
X184200000Y-112800000D03*
%TO.N,/CHARGING_POWR_GOOD*%
X158000000Y-115900000D03*
X148700000Y-114600000D03*
%TO.N,/CHARGED*%
X155205000Y-116270237D03*
X145600000Y-116200000D03*
%TO.N,/CHARGING*%
X158136091Y-116686091D03*
X139400000Y-115300000D03*
%TO.N,/ESP32-C3-02/CS*%
X196700000Y-87200000D03*
X218000000Y-87100000D03*
%TO.N,/ESP32-C3-02/RX_TX*%
X166500000Y-93300000D03*
X217300000Y-83700000D03*
X165200000Y-99900000D03*
%TO.N,/ESP32-C3-02/TX_RX*%
X165627354Y-101072646D03*
X217400000Y-85200000D03*
X177100000Y-91100000D03*
%TD*%
D19*
%TO.N,Net-(C16-Pad2)*%
X161300000Y-77300000D02*
X162100000Y-76500000D01*
X152800000Y-77300000D02*
X161300000Y-77300000D01*
D20*
%TO.N,/ESP32-C3-02/MIC_OUT*%
X168400000Y-79900000D02*
X167100000Y-79900000D01*
X167100000Y-79900000D02*
X167061091Y-79861091D01*
D21*
%TO.N,/ESP32-C3-02/BOOT*%
X207300000Y-85900000D02*
X205500000Y-85900000D01*
X198600000Y-111300000D02*
X194600000Y-111300000D01*
X207500000Y-89200000D02*
X207500000Y-102400000D01*
X207500000Y-102400000D02*
X198600000Y-111300000D01*
D20*
%TO.N,/ESP32-C3-02/EN*%
X206627000Y-83173000D02*
X206500000Y-83173000D01*
D21*
X198200000Y-108900000D02*
X194700000Y-108900000D01*
D20*
X206400000Y-74900000D02*
X207600000Y-76100000D01*
X207600000Y-82200000D02*
X206627000Y-83173000D01*
D21*
X206500000Y-100600000D02*
X198200000Y-108900000D01*
D20*
X207600000Y-76100000D02*
X207600000Y-82200000D01*
D21*
X206500000Y-89100000D02*
X206500000Y-100600000D01*
%TO.N,/USB_DN*%
X170700000Y-111100000D02*
X168353250Y-113446750D01*
X168353250Y-113446750D02*
X168353250Y-114320000D01*
X170700000Y-110600000D02*
X170700000Y-111100000D01*
%TO.N,Net-(J1-CC2)*%
X163300000Y-122600000D02*
X165100000Y-122600000D01*
X166400000Y-121300000D02*
X166400000Y-117100000D01*
X165100000Y-122600000D02*
X166400000Y-121300000D01*
X166400000Y-117100000D02*
X167000000Y-116500000D01*
%TO.N,Net-(J1-CC1)*%
X166058002Y-111441998D02*
X166824807Y-111441998D01*
X163800000Y-118100000D02*
X163800000Y-118000000D01*
X167500000Y-111700000D02*
X167800000Y-112000000D01*
X167082809Y-111700000D02*
X167500000Y-111700000D01*
X164129926Y-114092000D02*
X164908000Y-114092000D01*
X163630250Y-114669750D02*
X163630250Y-114591676D01*
X165700000Y-113300000D02*
X165700000Y-111800000D01*
X163200000Y-118700000D02*
X163800000Y-118100000D01*
X165700000Y-111800000D02*
X166058002Y-111441998D01*
X163800000Y-118000000D02*
X163630250Y-117830250D01*
X163630250Y-114591676D02*
X164129926Y-114092000D01*
X166824807Y-111441998D02*
X167082809Y-111700000D01*
X167800000Y-112000000D02*
X168000000Y-112000000D01*
X163630250Y-117830250D02*
X163630250Y-114730250D01*
X164908000Y-114092000D02*
X165700000Y-113300000D01*
D22*
%TO.N,/ESP32-C3-02/CS_SD*%
X222400000Y-77800000D02*
X222400000Y-91500000D01*
X222400000Y-91500000D02*
X220700000Y-93200000D01*
%TO.N,/ESP32-C3-02/SCL*%
X206000000Y-76500000D02*
X196800000Y-76500000D01*
%TO.N,/ESP32-C3-02/SDA*%
X196900000Y-79200000D02*
X204000000Y-79200000D01*
X204630000Y-79860000D02*
X204630000Y-79380000D01*
X204360000Y-80040000D02*
X204450000Y-80040000D01*
X204630000Y-79020000D02*
X204630000Y-78540000D01*
X205080000Y-78540000D02*
X205080000Y-79020000D01*
X204630000Y-79380000D02*
X204630000Y-79020000D01*
X205350000Y-79200000D02*
X205560403Y-79200000D01*
X204810000Y-78360000D02*
X204900000Y-78360000D01*
X205260000Y-79200000D02*
X205350000Y-79200000D01*
X204180000Y-79380000D02*
X204180000Y-79860000D01*
X205560403Y-79200000D02*
X206000000Y-79200000D01*
X205080000Y-79020000D02*
G75*
G03*
X205260000Y-79200000I180000J0D01*
G01*
X204450000Y-80040000D02*
G75*
G03*
X204630000Y-79860000I0J180000D01*
G01*
X204900000Y-78360000D02*
G75*
G02*
X205080000Y-78540000I0J-180000D01*
G01*
X204180000Y-79860000D02*
G75*
G03*
X204360000Y-80040000I180000J0D01*
G01*
X204630000Y-78540000D02*
G75*
G02*
X204810000Y-78360000I180000J0D01*
G01*
X204000000Y-79200000D02*
G75*
G02*
X204180000Y-79380000I0J-180000D01*
G01*
D20*
%TO.N,/ESP32-C3-02/GPIO19*%
X159800000Y-74400000D02*
X165900000Y-74400000D01*
X159500000Y-74100000D02*
X159800000Y-74400000D01*
X179900000Y-78900000D02*
X181473701Y-80473701D01*
X157800000Y-69300000D02*
X159000000Y-70500000D01*
X181473701Y-80473701D02*
X206926299Y-80473701D01*
X165900000Y-74400000D02*
X170400000Y-78900000D01*
X149600000Y-69300000D02*
X157800000Y-69300000D01*
X149500000Y-69300000D02*
X149600000Y-69300000D01*
X148900000Y-69900000D02*
X149500000Y-69300000D01*
X170400000Y-78900000D02*
X179900000Y-78900000D01*
X206926299Y-80473701D02*
X207000000Y-80400000D01*
X159000000Y-70500000D02*
X159000000Y-73600000D01*
X159000000Y-73600000D02*
X159500000Y-74100000D01*
%TO.N,/ESP32-C3-02/GPIO18*%
X174200000Y-87600000D02*
X149400000Y-87600000D01*
X179671232Y-82128768D02*
X174200000Y-87600000D01*
X142300000Y-75900000D02*
X143700000Y-74500000D01*
X149400000Y-87600000D02*
X142300000Y-80500000D01*
X143700000Y-74500000D02*
X143900000Y-74500000D01*
X206928768Y-82128768D02*
X179671232Y-82128768D01*
X142300000Y-80500000D02*
X142300000Y-75900000D01*
%TO.N,/ESP32-C3-02/GPIO8*%
X170000000Y-80200000D02*
X178200000Y-80200000D01*
X178400000Y-80400000D02*
X179400000Y-81400000D01*
X155600000Y-75800000D02*
X165600000Y-75800000D01*
X154200000Y-74400000D02*
X155600000Y-75800000D01*
X178200000Y-80200000D02*
X178400000Y-80400000D01*
X165600000Y-75800000D02*
X170000000Y-80200000D01*
X179400000Y-81400000D02*
X194800000Y-81400000D01*
%TO.N,/ESP32-C3-02/PHOTO_C*%
X178125000Y-78375000D02*
X179700000Y-76800000D01*
X182126000Y-74374000D02*
X216474000Y-74374000D01*
X216474000Y-74374000D02*
X218200000Y-76100000D01*
X178100000Y-78375000D02*
X178125000Y-78375000D01*
X179700000Y-76800000D02*
X182126000Y-74374000D01*
%TO.N,/ESP32-C3-02/RTS*%
X179600000Y-108500000D02*
X177474000Y-106374000D01*
X181900000Y-117200000D02*
X181700000Y-117200000D01*
X179600000Y-112700000D02*
X179600000Y-108500000D01*
X177474000Y-106374000D02*
X163574000Y-106374000D01*
X162300000Y-100100000D02*
X163100000Y-99300000D01*
X162300000Y-105100000D02*
X162300000Y-100100000D01*
X181700000Y-117200000D02*
X181000000Y-116500000D01*
X163100000Y-99300000D02*
X165700000Y-99300000D01*
X181000000Y-116500000D02*
X180650000Y-116500000D01*
X163574000Y-106374000D02*
X162300000Y-105100000D01*
D19*
%TO.N,/ESP32-C3-02/DTR*%
X166500000Y-105100000D02*
X167000000Y-105600000D01*
X181500000Y-105600000D02*
X184200000Y-108300000D01*
X166500000Y-98900000D02*
X166500000Y-105100000D01*
X184200000Y-108300000D02*
X184200000Y-112800000D01*
X167000000Y-105600000D02*
X181500000Y-105600000D01*
%TO.N,/CHARGING_POWR_GOOD*%
X158000000Y-115900000D02*
X158000000Y-114800000D01*
X158000000Y-114800000D02*
X157700000Y-114500000D01*
X157700000Y-114500000D02*
X148800000Y-114500000D01*
X148800000Y-114500000D02*
X148700000Y-114600000D01*
%TO.N,/CHARGED*%
X145651000Y-116149000D02*
X145600000Y-116200000D01*
X155083763Y-116149000D02*
X145651000Y-116149000D01*
X155205000Y-116270237D02*
X155083763Y-116149000D01*
%TO.N,/CHARGING*%
X138700000Y-113500000D02*
X138700000Y-114600000D01*
X158800000Y-116022182D02*
X158800000Y-113300000D01*
X157900000Y-112400000D02*
X139800000Y-112400000D01*
X139800000Y-112400000D02*
X138700000Y-113500000D01*
X158800000Y-113300000D02*
X157900000Y-112400000D01*
X158136091Y-116686091D02*
X158800000Y-116022182D01*
X138700000Y-114600000D02*
X139400000Y-115300000D01*
D22*
%TO.N,/ESP32-C3-02/CS*%
X196700000Y-87200000D02*
X196800000Y-87100000D01*
X196800000Y-87100000D02*
X218000000Y-87100000D01*
D21*
%TO.N,/ESP32-C3-02/RX_TX*%
X180900000Y-83700000D02*
X174100000Y-90500000D01*
X217300000Y-83700000D02*
X180900000Y-83700000D01*
X169300000Y-90500000D02*
X166500000Y-93300000D01*
X174100000Y-90500000D02*
X169300000Y-90500000D01*
%TO.N,/ESP32-C3-02/TX_RX*%
X177100000Y-90900000D02*
X182800000Y-85200000D01*
X182800000Y-85200000D02*
X217400000Y-85200000D01*
X177100000Y-91100000D02*
X177100000Y-90900000D01*
%TD*%
D23*
X221000000Y-73800000D02*
G75*
G02*
X223000000Y-75800000I0J-2000000D01*
G01*
X223000000Y-124000000D02*
X223000000Y-75800000D01*
X187500000Y-73800000D02*
G75*
G02*
X185500000Y-71800000I0J2000000D01*
G01*
X137300000Y-69900000D02*
G75*
G02*
X139300000Y-67900000I2000000J0D01*
G01*
X201600000Y-73800000D02*
X187500000Y-73800000D01*
X221000000Y-73800000D02*
X201600000Y-73800000D01*
X139300000Y-126000000D02*
X221000000Y-126000000D01*
X183500000Y-67900000D02*
G75*
G02*
X185500000Y-69900000I0J-2000000D01*
G01*
X185500000Y-71800000D02*
X185500000Y-69900000D01*
X139300000Y-126000000D02*
G75*
G02*
X137300000Y-124000000I0J2000000D01*
G01*
X183500000Y-67900000D02*
X139300000Y-67900000D01*
X137300000Y-69900000D02*
X137300000Y-124000000D01*
X223000000Y-124000000D02*
G75*
G02*
X221000000Y-126000000I-2000000J0D01*
G01*
M02*
