%TF.GenerationSoftware,KiCad,Pcbnew,9.0.0*%
%TF.CreationDate,2026-05-26T00:18:54+05:30*%
%TF.ProjectId,ESP32_IoT_4-layer_PCB,45535033-325f-4496-9f54-5f342d6c6179,rev?*%
%TF.SameCoordinates,Original*%
%TF.FileFunction,Paste,Top*%
%TF.FilePolarity,Positive*%
%FSLAX46Y46*%
G04 Gerber Fmt 4.6, Leading zero omitted, Abs format (unit mm)*
G04 Created by KiCad (PCBNEW 9.0.0) date 2026-05-26 00:18:54*
%MOMM*%
%LPD*%
G01*
G04 APERTURE LIST*
G04 Aperture macros list*
%AMRoundRect*
0 Rectangle with rounded corners*
0 $1 Rounding radius*
0 $2 $3 $4 $5 $6 $7 $8 $9 X,Y pos of 4 corners*
0 Add a 4 corners polygon primitive as box body*
4,1,4,$2,$3,$4,$5,$6,$7,$8,$9,$2,$3,0*
0 Add four circle primitives for the rounded corners*
1,1,$1+$1,$2,$3*
1,1,$1+$1,$4,$5*
1,1,$1+$1,$6,$7*
1,1,$1+$1,$8,$9*
0 Add four rect primitives between the rounded corners*
20,1,$1+$1,$2,$3,$4,$5,0*
20,1,$1+$1,$4,$5,$6,$7,0*
20,1,$1+$1,$6,$7,$8,$9,0*
20,1,$1+$1,$8,$9,$2,$3,0*%
G04 Aperture macros list end*
%ADD10RoundRect,0.250000X0.450000X-0.262500X0.450000X0.262500X-0.450000X0.262500X-0.450000X-0.262500X0*%
%ADD11RoundRect,0.250000X-0.250000X-0.475000X0.250000X-0.475000X0.250000X0.475000X-0.250000X0.475000X0*%
%ADD12RoundRect,0.250000X0.262500X0.450000X-0.262500X0.450000X-0.262500X-0.450000X0.262500X-0.450000X0*%
%ADD13RoundRect,0.250000X0.475000X-0.250000X0.475000X0.250000X-0.475000X0.250000X-0.475000X-0.250000X0*%
%ADD14R,1.000000X1.500000*%
%ADD15R,0.700000X1.500000*%
%ADD16R,1.500000X2.800000*%
%ADD17R,1.200000X1.200000*%
%ADD18R,0.550000X0.570000*%
%ADD19RoundRect,0.250000X-0.262500X-0.450000X0.262500X-0.450000X0.262500X0.450000X-0.262500X0.450000X0*%
%ADD20RoundRect,0.056250X0.168750X-0.188750X0.168750X0.188750X-0.168750X0.188750X-0.168750X-0.188750X0*%
%ADD21R,1.500000X0.900000*%
%ADD22R,0.700000X0.700000*%
%ADD23R,0.950000X2.150000*%
%ADD24R,3.250000X2.150000*%
%ADD25R,0.540000X0.540000*%
%ADD26R,0.300000X0.300000*%
%ADD27R,0.300000X0.900000*%
%ADD28R,0.900000X0.300000*%
%ADD29RoundRect,0.150000X0.150000X-0.587500X0.150000X0.587500X-0.150000X0.587500X-0.150000X-0.587500X0*%
%ADD30RoundRect,0.250000X-0.450000X0.262500X-0.450000X-0.262500X0.450000X-0.262500X0.450000X0.262500X0*%
%ADD31RoundRect,0.250000X0.255000X0.255000X-0.255000X0.255000X-0.255000X-0.255000X0.255000X-0.255000X0*%
%ADD32RoundRect,0.062500X0.350000X0.062500X-0.350000X0.062500X-0.350000X-0.062500X0.350000X-0.062500X0*%
%ADD33RoundRect,0.062500X0.062500X0.350000X-0.062500X0.350000X-0.062500X-0.350000X0.062500X-0.350000X0*%
%ADD34RoundRect,0.250000X-0.425000X0.537500X-0.425000X-0.537500X0.425000X-0.537500X0.425000X0.537500X0*%
%ADD35RoundRect,0.250000X0.425000X-0.537500X0.425000X0.537500X-0.425000X0.537500X-0.425000X-0.537500X0*%
%ADD36R,1.000000X5.500000*%
%ADD37R,1.600000X3.000000*%
%ADD38RoundRect,0.250000X-0.475000X0.250000X-0.475000X-0.250000X0.475000X-0.250000X0.475000X0.250000X0*%
%ADD39R,0.300000X1.200000*%
%ADD40R,0.200000X1.000000*%
%ADD41RoundRect,0.250000X0.537500X0.425000X-0.537500X0.425000X-0.537500X-0.425000X0.537500X-0.425000X0*%
%ADD42RoundRect,0.147500X0.442500X1.257500X-0.442500X1.257500X-0.442500X-1.257500X0.442500X-1.257500X0*%
%ADD43O,1.600000X0.600000*%
%ADD44RoundRect,0.250000X0.250000X0.475000X-0.250000X0.475000X-0.250000X-0.475000X0.250000X-0.475000X0*%
%ADD45RoundRect,0.150000X-0.150000X0.512500X-0.150000X-0.512500X0.150000X-0.512500X0.150000X0.512500X0*%
%ADD46RoundRect,0.100000X0.100000X-0.495000X0.100000X0.495000X-0.100000X0.495000X-0.100000X-0.495000X0*%
%ADD47R,1.100000X0.800000*%
%ADD48R,1.100000X1.000000*%
%TA.AperFunction,Profile*%
%ADD49C,0.050000*%
%TD*%
G04 APERTURE END LIST*
D10*
%TO.C,R4*%
X161900000Y-118712500D03*
X161900000Y-116887500D03*
%TD*%
%TO.C,R25*%
X181700000Y-72912500D03*
X181700000Y-71087500D03*
%TD*%
%TO.C,R14*%
X164450000Y-102750000D03*
X164450000Y-100925000D03*
%TD*%
D11*
%TO.C,C19*%
X153662500Y-75900000D03*
X155562500Y-75900000D03*
%TD*%
D10*
%TO.C,R18*%
X160450000Y-102762500D03*
X160450000Y-100937500D03*
%TD*%
D12*
%TO.C,R29*%
X155525000Y-81100000D03*
X153700000Y-81100000D03*
%TD*%
D13*
%TO.C,C11*%
X176850000Y-102200000D03*
X176850000Y-100300000D03*
%TD*%
D14*
%TO.C,J3*%
X213775000Y-99000000D03*
X211275000Y-99000000D03*
X208775000Y-99000000D03*
X206275000Y-99000000D03*
X203775000Y-99000000D03*
X201275000Y-99000000D03*
X198850000Y-99000000D03*
X197150000Y-99000000D03*
X216275000Y-99000000D03*
D15*
X195850000Y-99000000D03*
D16*
X193250000Y-100800000D03*
X218350000Y-100800000D03*
X220550000Y-122300000D03*
X193250000Y-122300000D03*
D15*
X194650000Y-99000000D03*
%TD*%
D17*
%TO.C,D3*%
X147855000Y-109025000D03*
X147855000Y-111125000D03*
%TD*%
D10*
%TO.C,R8*%
X144655000Y-115212500D03*
X144655000Y-113387500D03*
%TD*%
%TO.C,R24*%
X179500000Y-72912500D03*
X179500000Y-71087500D03*
%TD*%
D12*
%TO.C,R10*%
X149125000Y-92625000D03*
X147300000Y-92625000D03*
%TD*%
D18*
%TO.C,S2*%
X177309250Y-123057500D03*
X179859250Y-123057500D03*
X177309250Y-124217500D03*
X179859250Y-124217500D03*
%TD*%
D19*
%TO.C,R26*%
X159100000Y-75500000D03*
X160925000Y-75500000D03*
%TD*%
D20*
%TO.C,U2*%
X175425000Y-70930000D03*
X176075000Y-70930000D03*
X176725000Y-70930000D03*
X177375000Y-70930000D03*
X177375000Y-72870000D03*
X176725000Y-72870000D03*
X176075000Y-72870000D03*
X175425000Y-72870000D03*
%TD*%
D21*
%TO.C,U3*%
X202790000Y-74750000D03*
X202790000Y-76250000D03*
X202790000Y-77750000D03*
X202790000Y-79250000D03*
X202790000Y-80750000D03*
X202790000Y-82250000D03*
X202790000Y-83750000D03*
X202790000Y-85250000D03*
X202790000Y-86750000D03*
X220290000Y-86750000D03*
X220290000Y-85250000D03*
X220290000Y-83750000D03*
X220290000Y-82250000D03*
X220290000Y-80750000D03*
X220290000Y-79250000D03*
X220290000Y-77750000D03*
X220290000Y-76250000D03*
X220290000Y-74750000D03*
D22*
X211400000Y-79850000D03*
X212500000Y-79850000D03*
X213600000Y-79850000D03*
X211400000Y-80950000D03*
X212500000Y-80950000D03*
X213600000Y-80950000D03*
X211400000Y-82050000D03*
X212500000Y-82050000D03*
X213600000Y-82050000D03*
%TD*%
D10*
%TO.C,R3*%
X161800000Y-122612500D03*
X161800000Y-120787500D03*
%TD*%
D13*
%TO.C,C1*%
X172746750Y-110437500D03*
X172746750Y-108537500D03*
%TD*%
D23*
%TO.C,VR1*%
X150300000Y-99125000D03*
X152600000Y-99125000D03*
X154900000Y-99125000D03*
D24*
X152600000Y-93325000D03*
%TD*%
D12*
%TO.C,R27*%
X155525000Y-83300000D03*
X153700000Y-83300000D03*
%TD*%
D25*
%TO.C,U4*%
X167800000Y-101900000D03*
X168700000Y-101900000D03*
X167800000Y-101000000D03*
X168700000Y-101000000D03*
D26*
X167000000Y-102700000D03*
D27*
X167500000Y-103000000D03*
X168000000Y-103000000D03*
X168500000Y-103000000D03*
X169000000Y-103000000D03*
D26*
X169500000Y-102700000D03*
D28*
X169800000Y-102200000D03*
X169800000Y-101700000D03*
X169800000Y-101200000D03*
X169800000Y-100700000D03*
D26*
X169500000Y-100200000D03*
D27*
X169000000Y-99900000D03*
X168500000Y-99900000D03*
X168000000Y-99900000D03*
X167500000Y-99900000D03*
D26*
X167000000Y-100200000D03*
D28*
X166700000Y-100700000D03*
X166700000Y-101200000D03*
X166700000Y-101700000D03*
X166700000Y-102200000D03*
%TD*%
D29*
%TO.C,Q2*%
X177696750Y-116437500D03*
X179596750Y-116437500D03*
X178646750Y-114562500D03*
%TD*%
D30*
%TO.C,R11*%
X169750000Y-96237500D03*
X169750000Y-98062500D03*
%TD*%
D11*
%TO.C,C15*%
X175450000Y-74900000D03*
X177350000Y-74900000D03*
%TD*%
D30*
%TO.C,R32*%
X175746750Y-116312500D03*
X175746750Y-118137500D03*
%TD*%
D31*
%TO.C,U1*%
X155780000Y-119550000D03*
X155780000Y-118300000D03*
X154530000Y-119550000D03*
X154530000Y-118300000D03*
D32*
X157092500Y-119925000D03*
X157092500Y-119425000D03*
X157092500Y-118925000D03*
X157092500Y-118425000D03*
X157092500Y-117925000D03*
D33*
X156155000Y-116987500D03*
X155655000Y-116987500D03*
X155155000Y-116987500D03*
X154655000Y-116987500D03*
X154155000Y-116987500D03*
D32*
X153217500Y-117925000D03*
X153217500Y-118425000D03*
X153217500Y-118925000D03*
X153217500Y-119425000D03*
X153217500Y-119925000D03*
D33*
X154155000Y-120862500D03*
X154655000Y-120862500D03*
X155155000Y-120862500D03*
X155655000Y-120862500D03*
X156155000Y-120862500D03*
%TD*%
D30*
%TO.C,R15*%
X200600000Y-82575000D03*
X200600000Y-84400000D03*
%TD*%
D12*
%TO.C,R28*%
X151387500Y-79500000D03*
X149562500Y-79500000D03*
%TD*%
D10*
%TO.C,R7*%
X147600000Y-115300000D03*
X147600000Y-113475000D03*
%TD*%
%TO.C,R19*%
X214000000Y-96912500D03*
X214000000Y-95087500D03*
%TD*%
%TO.C,R1*%
X154300000Y-115312500D03*
X154300000Y-113487500D03*
%TD*%
%TO.C,R2*%
X156500000Y-115312500D03*
X156500000Y-113487500D03*
%TD*%
D12*
%TO.C,R30*%
X155525000Y-78500000D03*
X153700000Y-78500000D03*
%TD*%
%TO.C,R22*%
X188312500Y-96600000D03*
X186487500Y-96600000D03*
%TD*%
D34*
%TO.C,C4*%
X147600000Y-95150000D03*
X147600000Y-98025000D03*
%TD*%
D17*
%TO.C,LED 5*%
X160550000Y-96650000D03*
X160550000Y-98750000D03*
%TD*%
D34*
%TO.C,C7*%
X198600000Y-74962500D03*
X198600000Y-77837500D03*
%TD*%
D30*
%TO.C,R31*%
X163012500Y-77687500D03*
X163012500Y-79512500D03*
%TD*%
D35*
%TO.C,C9*%
X174550000Y-102887500D03*
X174550000Y-100012500D03*
%TD*%
D36*
%TO.C,J2*%
X143855000Y-121725000D03*
X145855000Y-121725000D03*
D37*
X141455000Y-119475000D03*
X148255000Y-119475000D03*
%TD*%
D38*
%TO.C,C5*%
X144700000Y-95625000D03*
X144700000Y-97525000D03*
%TD*%
%TO.C,C14*%
X181700000Y-93150000D03*
X181700000Y-95050000D03*
%TD*%
D39*
%TO.C,J1*%
X166003250Y-113070000D03*
X166503250Y-113070000D03*
X167003250Y-113070000D03*
X167503250Y-113070000D03*
X168003250Y-113070000D03*
X168503250Y-113070000D03*
X169003250Y-113070000D03*
X169503250Y-113070000D03*
X170003250Y-113070000D03*
X170503250Y-113070000D03*
X171003250Y-113070000D03*
X171503250Y-113070000D03*
D40*
X168753250Y-117650000D03*
X168753250Y-120750000D03*
%TD*%
D41*
%TO.C,C3*%
X153937500Y-101800000D03*
X151062500Y-101800000D03*
%TD*%
D11*
%TO.C,C6*%
X154505000Y-123425000D03*
X156405000Y-123425000D03*
%TD*%
D19*
%TO.C,R34*%
X183521750Y-118737500D03*
X185346750Y-118737500D03*
%TD*%
D42*
%TO.C,F1*%
X163031750Y-110837500D03*
X160061750Y-110837500D03*
%TD*%
D19*
%TO.C,R12*%
X176837500Y-106750000D03*
X178662500Y-106750000D03*
%TD*%
D43*
%TO.C,U6*%
X184100000Y-90495000D03*
X184100000Y-91765000D03*
X184100000Y-93035000D03*
X184100000Y-94305000D03*
X191300000Y-94305000D03*
X191300000Y-93035000D03*
X191300000Y-91765000D03*
X191300000Y-90495000D03*
%TD*%
D17*
%TO.C,LED 6*%
X164450000Y-98637500D03*
X164450000Y-96537500D03*
%TD*%
D29*
%TO.C,Q3*%
X183396750Y-116475000D03*
X185296750Y-116475000D03*
X184346750Y-114600000D03*
%TD*%
D44*
%TO.C,C16*%
X151362500Y-76800000D03*
X149462500Y-76800000D03*
%TD*%
%TO.C,C22*%
X179446750Y-120937500D03*
X177546750Y-120937500D03*
%TD*%
D17*
%TO.C,LED 4*%
X143000000Y-92975000D03*
X145100000Y-92975000D03*
%TD*%
D45*
%TO.C,U5*%
X169696750Y-108300000D03*
X168746750Y-108300000D03*
X167796750Y-108300000D03*
X167796750Y-110575000D03*
X168746750Y-110575000D03*
X169696750Y-110575000D03*
%TD*%
D44*
%TO.C,C17*%
X151312500Y-82100000D03*
X149412500Y-82100000D03*
%TD*%
D17*
%TO.C,D1*%
X141255000Y-108925000D03*
X141255000Y-111025000D03*
%TD*%
%TO.C,D2*%
X144655000Y-111125000D03*
X144655000Y-109025000D03*
%TD*%
D10*
%TO.C,R5*%
X149900000Y-115312500D03*
X149900000Y-113487500D03*
%TD*%
D12*
%TO.C,R16*%
X191912500Y-96600000D03*
X190087500Y-96600000D03*
%TD*%
D46*
%TO.C,U7*%
X159262500Y-79460000D03*
X159912500Y-79460000D03*
X160562500Y-79460000D03*
X160562500Y-77540000D03*
X159262500Y-77540000D03*
%TD*%
D10*
%TO.C,R9*%
X141055000Y-115212500D03*
X141055000Y-113387500D03*
%TD*%
D11*
%TO.C,C13*%
X206450000Y-96200000D03*
X208350000Y-96200000D03*
%TD*%
%TO.C,C18*%
X158862500Y-81800000D03*
X160762500Y-81800000D03*
%TD*%
D12*
%TO.C,R33*%
X179459250Y-118637500D03*
X177634250Y-118637500D03*
%TD*%
D44*
%TO.C,C2*%
X153650000Y-104200000D03*
X151750000Y-104200000D03*
%TD*%
D18*
%TO.C,S1*%
X183121750Y-122957500D03*
X185671750Y-122957500D03*
X183121750Y-124117500D03*
X185671750Y-124117500D03*
%TD*%
D10*
%TO.C,R20*%
X198300000Y-84300000D03*
X198300000Y-82475000D03*
%TD*%
D41*
%TO.C,C12*%
X203950000Y-96200000D03*
X201075000Y-96200000D03*
%TD*%
D38*
%TO.C,C10*%
X172050000Y-100400000D03*
X172050000Y-102300000D03*
%TD*%
D12*
%TO.C,R13*%
X178562500Y-104350000D03*
X176737500Y-104350000D03*
%TD*%
D10*
%TO.C,R6*%
X152100000Y-115312500D03*
X152100000Y-113487500D03*
%TD*%
D44*
%TO.C,C21*%
X185346750Y-120937500D03*
X183446750Y-120937500D03*
%TD*%
D38*
%TO.C,C8*%
X200800000Y-74650000D03*
X200800000Y-76550000D03*
%TD*%
D47*
%TO.C,Q1*%
X171345000Y-83250000D03*
X171345000Y-84350000D03*
D48*
X174855000Y-83800000D03*
%TD*%
D38*
%TO.C,C20*%
X165412500Y-77750000D03*
X165412500Y-79650000D03*
%TD*%
D12*
%TO.C,R23*%
X174067500Y-81100000D03*
X172242500Y-81100000D03*
%TD*%
D49*
X221000000Y-73800000D02*
G75*
G02*
X223000000Y-75800000I0J-2000000D01*
G01*
X223000000Y-124000000D02*
X223000000Y-75800000D01*
X187500000Y-73800000D02*
G75*
G02*
X185500000Y-71800000I0J2000000D01*
G01*
X137300000Y-69900000D02*
G75*
G02*
X139300000Y-67900000I2000000J0D01*
G01*
X201600000Y-73800000D02*
X187500000Y-73800000D01*
X221000000Y-73800000D02*
X201600000Y-73800000D01*
X139300000Y-126000000D02*
X221000000Y-126000000D01*
X183500000Y-67900000D02*
G75*
G02*
X185500000Y-69900000I0J-2000000D01*
G01*
X185500000Y-71800000D02*
X185500000Y-69900000D01*
X139300000Y-126000000D02*
G75*
G02*
X137300000Y-124000000I0J2000000D01*
G01*
X183500000Y-67900000D02*
X139300000Y-67900000D01*
X137300000Y-69900000D02*
X137300000Y-124000000D01*
X223000000Y-124000000D02*
G75*
G02*
X221000000Y-126000000I-2000000J0D01*
G01*
M02*
