M48
; DRILL file {KiCad 9.0.0} date 2026-05-26T00:20:27+0530
; FORMAT={-:-/ absolute / metric / decimal}
; #@! TF.CreationDate,2026-05-26T00:20:27+05:30
; #@! TF.GenerationSoftware,Kicad,Pcbnew,9.0.0
; #@! TF.FileFunction,MixedPlating,1,4
FMAT,2
METRIC
; #@! TA.AperFunction,Plated,PTH,ViaDrill
T1C0.100
; #@! TA.AperFunction,Plated,PTH,ViaDrill
T2C0.300
; #@! TA.AperFunction,Plated,PTH,ComponentDrill
T3C0.300
; #@! TA.AperFunction,Plated,PTH,ComponentDrill
T4C0.450
; #@! TA.AperFunction,Plated,PTH,ComponentDrill
T5C0.650
; #@! TA.AperFunction,Plated,PTH,ComponentDrill
T6C0.700
; #@! TA.AperFunction,Plated,PTH,ComponentDrill
T7C1.000
; #@! TA.AperFunction,NonPlated,NPTH,ComponentDrill
T8C1.150
; #@! TA.AperFunction,NonPlated,NPTH,ComponentDrill
T9C1.650
; #@! TA.AperFunction,NonPlated,NPTH,ComponentDrill
T10C2.500
%
G90
G05
T1
X168.0Y-112.0
X177.3Y-122.2
X177.8Y-122.2
X183.2Y-122.1
X183.8Y-122.1
T2
X139.4Y-115.3
X141.1Y-94.4
X141.2Y-95.6
X142.5Y-122.5
X142.5Y-123.3
X142.5Y-124.2
X142.9Y-108.925
X143.9Y-74.5
X144.5Y-100.3
X144.6Y-69.8
X145.6Y-116.2
X145.733Y-100.3
X146.2Y-108.925
X146.8Y-77.0
X146.967Y-100.3
X148.2Y-100.3
X148.2Y-101.275
X148.2Y-102.25
X148.2Y-103.225
X148.2Y-104.2
X148.7Y-114.6
X148.9Y-69.9
X149.125Y-90.225
X149.4Y-103.2
X149.4Y-104.2
X150.4Y-75.4
X151.0Y-113.487
X151.1Y-91.6
X152.1Y-91.6
X152.6Y-79.9
X152.8Y-77.3
X152.8Y-124.0
X153.0Y-116.7
X153.1Y-91.6
X153.3Y-113.487
X154.1Y-91.6
X154.2Y-74.4
X154.631Y-121.8
X155.2Y-121.8
X155.205Y-116.27
X155.4Y-113.487
X156.0Y-121.8
X156.7Y-74.8
X156.7Y-84.5
X158.0Y-115.9
X158.136Y-116.686
X158.35Y-123.85
X158.5Y-118.0
X158.575Y-118.925
X158.6Y-119.8
X158.8Y-109.8
X158.8Y-110.85
X158.8Y-111.9
X159.7Y-69.8
X160.2Y-83.3
X160.55Y-94.85
X161.9Y-82.6
X162.1Y-76.5
X163.2Y-118.7
X163.3Y-122.6
X164.3Y-109.8
X164.3Y-110.85
X164.3Y-111.9
X164.45Y-94.85
X165.1Y-112.0
X165.2Y-99.9
X165.627Y-101.073
X165.7Y-99.3
X166.5Y-93.3
X166.5Y-98.9
X166.585Y-112.02
X166.8Y-110.6
X167.0Y-116.5
X167.061Y-79.861
X167.6Y-74.3
X167.997Y-104.3
X168.4Y-79.9
X168.757Y-111.365
X169.75Y-94.85
X169.8Y-82.1
X170.7Y-110.6
X171.4Y-107.3
X171.7Y-111.7
X172.05Y-99.15
X174.55Y-104.3
X174.8Y-70.1
X175.0Y-76.3
X175.3Y-113.8
X175.5Y-105.05
X175.8Y-81.1
X175.8Y-108.8
X177.1Y-91.1
X177.8Y-76.4
X178.1Y-78.375
X179.6Y-112.7
X180.5Y-73.9
X180.65Y-116.5
X181.7Y-91.7
X181.7Y-96.3
X181.9Y-117.2
X184.2Y-112.8
X189.7Y-89.0
X190.4Y-121.7
X194.6Y-111.3
X194.7Y-78.5
X194.7Y-108.9
X194.8Y-81.4
X195.5Y-103.0
X196.6Y-75.4
X196.7Y-87.2
X196.8Y-76.5
X196.9Y-79.2
X198.5Y-100.8
X202.2Y-94.6
X204.4Y-88.4
X205.0Y-94.7
X205.5Y-85.9
X206.0Y-76.5
X206.0Y-79.2
X206.4Y-74.9
X206.5Y-83.173
X206.5Y-89.1
X206.929Y-82.129
X207.0Y-80.4
X207.3Y-85.9
X207.5Y-89.2
X209.5Y-94.8
X215.1Y-93.8
X216.9Y-103.4
X217.3Y-83.7
X217.4Y-85.2
X218.0Y-87.1
X218.2Y-76.1
X220.7Y-93.2
X222.4Y-77.8
T3
X211.4Y-80.4
X211.4Y-81.5
X211.95Y-79.85
X211.95Y-80.95
X211.95Y-82.05
X212.5Y-80.4
X212.5Y-81.5
X213.05Y-79.85
X213.05Y-80.95
X213.05Y-82.05
X213.6Y-80.4
X213.6Y-81.5
T4
X165.953Y-114.32
X166.353Y-115.03
X166.753Y-114.32
X167.153Y-115.03
X167.553Y-114.32
X167.953Y-115.03
X168.353Y-114.32
X169.153Y-114.32
X169.553Y-115.03
X169.953Y-114.32
X170.353Y-115.03
X170.753Y-114.32
X171.153Y-115.03
X171.553Y-114.32
T6
X144.713Y-78.95
X144.713Y-80.85
T7
X146.34Y-72.1
X148.88Y-72.1
X151.42Y-72.1
X153.96Y-72.1
X156.5Y-72.1
X161.48Y-72.0
X164.02Y-72.0
X166.56Y-72.0
X169.1Y-72.0
T8
X195.4Y-101.8
T9
X216.4Y-101.8
T10
X143.1Y-88.0
X143.1Y-104.4
X173.5Y-94.4
T5
G00X164.483Y-115.17
M15
G01X164.483Y-115.77
M16
G05
G00X164.483Y-119.9
M15
G01X164.483Y-120.5
M16
G05
G00X173.023Y-115.17
M15
G01X173.023Y-115.77
M16
G05
G00X173.023Y-119.9
M15
G01X173.023Y-120.5
M16
G05
M30
